#!OML:ASF E:\Steps\Project 1\Capture day 1\Session 2\Subject.ASF
:FULLY-SPECIFIED
:DEGREES
176
root 1.35361 17.056 13.4033 -148.745 -24.2404 171.518
lowerback -31.2231 -7.84644 -11.898
upperback -2.75188 -6.90597 -2.10641
thorax 13.8594 -4.14099 1.07436
lowerneck -3.04873 -4.48013 -2.3238
upperneck 24.8999 -9.76613 5.52022
head 8.63187 -5.16854 1.3035
rclavicle -1.81888e-014 3.4191e-014
rhumerus -66.5405 -23.4206 -57.488
rradius 27.0352
rwrist 3.0909
rhand -1.38053 -53.9995
rfingers 7.12502
rthumb 24.2674 -82.4836
lclavicle -1.81888e-014 3.4191e-014
lhumerus -40.2473 -12.4966 68.2926
lradius 45.3471
lwrist 7.14615
lhand -21.3568 -12.6763
lfingers 7.12502
lthumb 5.02984 17.244
rfemur -38.7397 3.55296 -9.63166
rtibia 8.62468
rfoot -3.49029 -30.6609
rtoes -18.6182
lfemur -14.3354 -21.3175 -10.1633
ltibia 34.067
lfoot -31.6604 -12.5002
ltoes -9.93411
177
root 1.41928 17.0124 13.2897 -148.741 -23.5208 171.318
lowerback -30.8847 -7.50593 -11.6882
upperback -2.64691 -6.53647 -2.26942
thorax 13.7672 -3.95719 0.981904
lowerneck -3.40974 -4.35805 -2.5806
upperneck 25.192 -9.6902 5.84209
head 8.82447 -5.11607 1.44246
rclavicle 7.74266e-014 3.4191e-014
rhumerus -66.1248 -23.7204 -57.6337
rradius 26.4837
rwrist 3.76415
rhand -1.50562 -53.5168
rfingers 7.12502
rthumb 24.1475 -82.0169
lclavicle 7.74266e-014 3.4191e-014
lhumerus -40.0676 -12.1848 67.9263
lradius 45.1788
lwrist 7.36855
lhand -21.4411 -12.7182
lfingers 7.12502
lthumb 4.94846 17.204
rfemur -38.5387 4.16747 -9.48061
rtibia 8.30095
rfoot -4.88622 -30.3464
rtoes -17.9002
lfemur -13.7841 -20.9011 -10.3966
ltibia 34.173
lfoot -31.3365 -12.3454
ltoes -11.1137
178
root 1.47676 16.9744 13.1867 -148.653 -22.668 171.056
lowerback -30.5062 -7.11935 -11.4443
upperback -2.5968 -6.13379 -2.45114
thorax 13.5877 -3.75694 0.87005
lowerneck -2.83641 -4.25316 -2.30465
upperneck 24.216 -9.31678 5.70661
head 8.34343 -4.92 1.42424
rclavicle 1.55052e-014 -7.95139e-015
rhumerus -65.7705 -24.1864 -57.5058
rradius 26.0082
rwrist 4.75038
rhand -1.88284 -53.2571
rfingers 7.12502
rthumb 23.7858 -81.8048
lclavicle 1.55052e-014 -7.95139e-015
lhumerus -39.921 -11.6931 67.6589
lradius 44.9075
lwrist 7.47573
lhand -21.774 -12.5052
lfingers 7.12502
lthumb 4.62697 17.4242
rfemur -38.6765 3.93082 -9.0295
rtibia 8.57892
rfoot -5.99682 -29.1703
rtoes -18.6523
lfemur -13.1849 -20.3079 -10.7821
ltibia 34.0721
lfoot -30.8016 -12.2323
ltoes -11.7909
179
root 1.52742 16.9409 13.097 -148.359 -21.6748 170.816
lowerback -30.2202 -6.69119 -10.9875
upperback -2.6352 -5.75432 -2.69389
thorax 13.3304 -3.55962 0.567143
lowerneck -3.60368 -4.41926 -2.72565
upperneck 25.0519 -9.74619 5.99148
head 8.82881 -5.12141 1.50777
rclavicle 8.74653e-015 1.82882e-014
rhumerus -65.3347 -24.5256 -57.6135
rradius 25.7562
rwrist 5.74065
rhand -2.16329 -53.5297
rfingers 7.12502
rthumb 23.5168 -82.1122
lclavicle 8.74653e-015 1.82882e-014
lhumerus -39.9275 -11.0911 67.2843
lradius 44.6573
lwrist 7.70319
lhand -21.902 -12.3022
lfingers 7.12502
lthumb 4.50339 17.63
rfemur -39.3413 3.36499 -8.55301
rtibia 9.24153
rfoot -7.18644 -27.729
rtoes -19.5641
lfemur -12.8304 -19.4885 -11.1554
ltibia 33.9177
lfoot -30.2509 -12.1435
ltoes -12.3319
180
root 1.57677 16.9088 13.0185 -147.855 -20.5964 170.722
lowerback -30.1259 -6.35334 -10.3975
upperback -2.73521 -5.53547 -2.83884
thorax 13.1075 -3.43282 0.217202
lowerneck -3.49065 -4.26302 -2.22025
upperneck 24.4856 -9.30893 5.51877
head 8.54208 -4.8956 1.3224
rclavicle -3.27995e-014 -9.54166e-015
rhumerus -64.6058 -24.4474 -58.193
rradius 25.8336
rwrist 6.6084
rhand -2.18604 -53.7549
rfingers 7.12502
rthumb 23.4949 -82.3402
lclavicle -3.27995e-014 -9.54166e-015
lhumerus -40.1786 -10.3143 66.8162
lradius 44.4986
lwrist 8.12041
lhand -21.8194 -12.5159
lfingers 7.12502
lthumb 4.58319 17.4145
rfemur -40.4055 2.92995 -8.18663
rtibia 9.78614
rfoot -7.81311 -26.5316
rtoes -20.7662
lfemur -12.828 -18.5599 -11.3179
ltibia 33.7403
lfoot -29.7326 -12.0447
ltoes -13.429
181
root 1.62324 16.884 12.9427 -147.377 -19.5892 170.621
lowerback -29.9416 -6.16581 -9.97472
upperback -2.84889 -5.47773 -2.81255
thorax 12.8737 -3.38588 0.0771534
lowerneck -3.07995 -4.08388 -1.81363
upperneck 23.7167 -8.7724 4.89049
head 8.1321 -4.65174 1.12423
rclavicle 5.397e-014 2.54444e-014
rhumerus -63.7496 -24.1503 -58.7913
rradius 26.1112
rwrist 7.38048
rhand -2.10941 -53.5434
rfingers 7.12502
rthumb 23.5685 -82.1192
lclavicle 5.397e-014 2.54444e-014
lhumerus -40.6899 -9.46 66.5994
lradius 44.4745
lwrist 8.83619
lhand -21.785 -12.4568
lfingers 7.12502
lthumb 4.61634 17.4729
rfemur -41.4399 1.98373 -7.57485
rtibia 10.3611
rfoot -7.5376 -24.9394
rtoes -22.5984
lfemur -12.8637 -17.9898 -11.5061
ltibia 33.6498
lfoot -29.3378 -11.8136
ltoes -14.8531
182
root 1.66688 16.8701 12.8715 -146.956 -18.5827 170.479
lowerback -29.6534 -5.99932 -9.66347
upperback -2.94425 -5.41561 -2.76484
thorax 12.6247 -3.34084 0.0254934
lowerneck -2.629 -4.01829 -1.58542
upperneck 23.2368 -8.51991 4.42358
head 7.84794 -4.55751 0.978948
rclavicle 1.40143e-014 -2.54444e-014
rhumerus -62.8795 -23.6812 -59.6134
rradius 26.6015
rwrist 7.75435
rhand -2.09112 -53.375
rfingers 7.12502
rthumb 23.586 -81.9485
lclavicle 1.40143e-014 -2.54444e-014
lhumerus -41.057 -8.59773 66.5108
lradius 44.2406
lwrist 9.60638
lhand -21.8899 -11.5707
lfingers 7.12502
lthumb 4.51506 18.3611
rfemur -42.6587 0.62425 -6.80308
rtibia 11.3887
rfoot -7.31243 -22.8968
rtoes -23.7393
lfemur -12.8769 -17.6481 -11.8223
ltibia 33.6523
lfoot -28.8762 -11.4577
ltoes -15.354
183
root 1.70874 16.8645 12.8109 -146.464 -17.4705 170.342
lowerback -29.3181 -5.83224 -9.33418
upperback -3.08419 -5.37197 -2.72014
thorax 12.304 -3.30539 -0.0407253
lowerneck -2.71192 -3.80497 -1.83832
upperneck 23.208 -8.20498 4.49993
head 7.85365 -4.41888 1.06912
rclavicle -2.5345e-014 -1.00983e-013
rhumerus -61.7984 -22.9715 -60.7322
rradius 27.13
rwrist 7.71361
rhand -2.09399 -53.7602
rfingers 7.12502
rthumb 23.5832 -82.3341
lclavicle -2.5345e-014 -1.00983e-013
lhumerus -41.2195 -7.47746 66.3717
lradius 43.6439
lwrist 10.0838
lhand -22.0492 -10.8166
lfingers 7.12502
lthumb 4.36122 19.1185
rfemur -44.2619 -0.691663 -6.10348
rtibia 12.7791
rfoot -7.04968 -20.8364
rtoes -25.9519
lfemur -13.0241 -17.313 -12.2119
ltibia 33.6506
lfoot -28.1725 -11.1022
ltoes -15.3156
184
root 1.75053 16.8702 12.7582 -145.973 -16.3684 170.206
lowerback -28.915 -5.74265 -9.04504
upperback -3.15762 -5.40666 -2.62807
thorax 12.0425 -3.30433 -0.0655381
lowerneck -2.52332 -3.22639 -1.48991
upperneck 22.313 -7.10737 4.04733
head 7.4507 -3.87567 0.972986
rclavicle 4.81059e-014 5.725e-014
rhumerus -60.3591 -22.4072 -61.7909
rradius 27.4614
rwrist 7.49673
rhand -2.2951 -53.875
rfingers 7.12502
rthumb 23.3903 -82.4736
lclavicle 4.81059e-014 5.725e-014
lhumerus -41.1323 -6.17761 66.2714
lradius 42.7628
lwrist 10.5178
lhand -22.1238 -10.8576
lfingers 7.12502
lthumb 4.28924 19.079
rfemur -45.7804 -1.61645 -5.58509
rtibia 13.9522
rfoot -6.53433 -19.2513
rtoes -28.9344
lfemur -13.3117 -17.1525 -12.6337
ltibia 33.768
lfoot -27.5067 -10.8081
ltoes -16.0957
185
root 1.79499 16.8881 12.709 -145.721 -15.4355 170.179
lowerback -28.1467 -5.66011 -8.70216
upperback -3.50642 -5.4758 -2.5094
thorax 12.0943 -3.29397 -0.0758307
lowerneck -3.19375 -3.08598 -1.33618
upperneck 22.3956 -6.7634 3.54398
head 7.56334 -3.70644 0.793083
rclavicle 1.19271e-014 7.15625e-015
rhumerus -58.9108 -21.9611 -62.856
rradius 27.9152
rwrist 6.97825
rhand -2.68987 -53.5418
rfingers 7.12502
rthumb 23.0116 -82.1881
lclavicle 1.19271e-014 7.15625e-015
lhumerus -40.8726 -5.20538 66.3277
lradius 41.7619
lwrist 11.1932
lhand -22.3647 -10.8825
lfingers 7.12502
lthumb 4.05663 19.0586
rfemur -46.8656 -1.88337 -5.20307
rtibia 14.8353
rfoot -6.56374 -18.2337
rtoes -29.5066
lfemur -13.4289 -17.0773 -12.9021
ltibia 33.9493
lfoot -26.9007 -10.6186
ltoes -17.2393
186
root 1.84011 16.9105 12.6577 -145.655 -14.6017 170.21
lowerback -27.4794 -5.67367 -8.44621
upperback -3.29022 -5.58583 -2.30364
thorax 12.0164 -3.31332 0.0207968
lowerneck -3.86262 -3.02566 -1.35918
upperneck 22.5853 -6.59511 3.25693
head 7.73176 -3.6262 0.697677
rclavicle -2.39536e-014 -2.54444e-014
rhumerus -57.3835 -21.2488 -64.1491
rradius 28.5988
rwrist 6.07812
rhand -3.09148 -53.1795
rfingers 7.12502
rthumb 22.6262 -81.8733
lclavicle -2.39536e-014 -2.54444e-014
lhumerus -40.6635 -4.38511 66.4455
lradius 40.9714
lwrist 11.7242
lhand -22.4082 -10.3788
lfingers 7.12502
lthumb 4.01459 19.5631
rfemur -47.5699 -1.76341 -4.91003
rtibia 15.4821
rfoot -7.06436 -17.4145
rtoes -28.2975
lfemur -13.266 -16.9579 -13.1215
ltibia 34.0005
lfoot -26.285 -10.4048
ltoes -19.7789
187
root 1.88269 16.9346 12.6073 -145.489 -13.7342 170.164
lowerback -27.256 -5.74501 -8.21787
upperback -2.89822 -5.68805 -2.16113
thorax 12.3682 -3.3308 0.00899175
lowerneck -2.90185 -2.55228 -1.09798
upperneck 20.2595 -5.46943 2.90152
head 6.75056 -3.03964 0.685847
rclavicle 1.6201e-014 1.55052e-014
rhumerus -55.6486 -20.4431 -65.6889
rradius 29.4427
rwrist 5.04514
rhand -3.19232 -52.8822
rfingers 7.12502
rthumb 22.5294 -81.5878
lclavicle 1.6201e-014 1.55052e-014
lhumerus -40.3573 -3.57647 66.4031
lradius 40.3474
lwrist 11.9842
lhand -21.932 -10.1963
lfingers 7.12502
lthumb 4.47445 19.7365
rfemur -48.1906 -1.58375 -4.75718
rtibia 15.8574
rfoot -7.31604 -16.7536
rtoes -27.8703
lfemur -13.1698 -16.7666 -13.4336
ltibia 34.0082
lfoot -25.564 -10.1952
ltoes -23.3699
